<mxfile host="app.diagrams.net" modified="2023-10-11T06:50:48.355Z" agent="Mozilla/5.0 (Windows NT 10.0; Win64; x64) AppleWebKit/537.36 (KHTML, like Gecko) Chrome/115.0.0.0 Safari/537.36" etag="f1_z3LSNOY5dm8RCH75a" version="22.0.4" type="github">
  <diagram name="第 1 页" id="z93fDyGZTfizKJ3x5TF0">
    <mxGraphModel dx="350" dy="1373" grid="1" gridSize="10" guides="1" tooltips="1" connect="1" arrows="1" fold="1" page="1" pageScale="1" pageWidth="827" pageHeight="1169" math="0" shadow="0">
      <root>
        <mxCell id="0" />
        <mxCell id="1" parent="0" />
        <mxCell id="jo4N5lZXsadOkr9-SdVL-1" style="edgeStyle=orthogonalEdgeStyle;rounded=0;orthogonalLoop=1;jettySize=auto;html=1;" edge="1" parent="1" target="jo4N5lZXsadOkr9-SdVL-4">
          <mxGeometry relative="1" as="geometry">
            <mxPoint x="240" y="-1050" as="sourcePoint" />
          </mxGeometry>
        </mxCell>
        <mxCell id="jo4N5lZXsadOkr9-SdVL-2" value="领用提醒" style="rounded=1;whiteSpace=wrap;html=1;fontSize=12;glass=0;strokeWidth=1;shadow=0;fillColor=#dae8fc;strokeColor=#6c8ebf;" vertex="1" parent="1">
          <mxGeometry y="-1160" width="120" height="40" as="geometry" />
        </mxCell>
        <mxCell id="jo4N5lZXsadOkr9-SdVL-3" value="" style="edgeStyle=orthogonalEdgeStyle;rounded=0;orthogonalLoop=1;jettySize=auto;html=1;" edge="1" parent="1" source="jo4N5lZXsadOkr9-SdVL-4" target="jo4N5lZXsadOkr9-SdVL-11">
          <mxGeometry relative="1" as="geometry" />
        </mxCell>
        <mxCell id="jo4N5lZXsadOkr9-SdVL-4" value="本地服务器每5分钟&lt;br&gt;调用一次接口" style="rounded=1;whiteSpace=wrap;html=1;" vertex="1" parent="1">
          <mxGeometry x="180" y="-1000" width="120" height="60" as="geometry" />
        </mxCell>
        <mxCell id="jo4N5lZXsadOkr9-SdVL-5" style="edgeStyle=orthogonalEdgeStyle;rounded=0;orthogonalLoop=1;jettySize=auto;html=1;entryX=1;entryY=0.5;entryDx=0;entryDy=0;" edge="1" parent="1" source="jo4N5lZXsadOkr9-SdVL-6" target="jo4N5lZXsadOkr9-SdVL-4">
          <mxGeometry relative="1" as="geometry" />
        </mxCell>
        <mxCell id="jo4N5lZXsadOkr9-SdVL-6" value="    3天航班信息&#xa;&#xa;&#xa;" style="strokeWidth=2;shape=mxgraph.flowchart.document2;size=0.25;align=left;whiteSpace=wrap;labelBackgroundColor=none;labelBorderColor=none;verticalAlign=top;" vertex="1" parent="1">
          <mxGeometry x="450" y="-1040" width="160" height="70" as="geometry" />
        </mxCell>
        <mxCell id="jo4N5lZXsadOkr9-SdVL-7" value="" style="edgeStyle=orthogonalEdgeStyle;rounded=0;orthogonalLoop=1;jettySize=auto;html=1;" edge="1" parent="1" source="jo4N5lZXsadOkr9-SdVL-8" target="jo4N5lZXsadOkr9-SdVL-16">
          <mxGeometry relative="1" as="geometry" />
        </mxCell>
        <mxCell id="jo4N5lZXsadOkr9-SdVL-8" value="语音模块拨打安全员电话" style="rounded=1;whiteSpace=wrap;html=1;" vertex="1" parent="1">
          <mxGeometry x="180" y="-630" width="120" height="60" as="geometry" />
        </mxCell>
        <mxCell id="jo4N5lZXsadOkr9-SdVL-9" style="edgeStyle=orthogonalEdgeStyle;rounded=0;orthogonalLoop=1;jettySize=auto;html=1;strokeColor=default;startArrow=none;startFill=0;" edge="1" parent="1" source="jo4N5lZXsadOkr9-SdVL-11">
          <mxGeometry relative="1" as="geometry">
            <mxPoint x="370" y="-720" as="targetPoint" />
          </mxGeometry>
        </mxCell>
        <mxCell id="jo4N5lZXsadOkr9-SdVL-10" value="否" style="edgeLabel;html=1;align=center;verticalAlign=middle;resizable=0;points=[];" vertex="1" connectable="0" parent="jo4N5lZXsadOkr9-SdVL-9">
          <mxGeometry x="-0.7461" relative="1" as="geometry">
            <mxPoint as="offset" />
          </mxGeometry>
        </mxCell>
        <mxCell id="jo4N5lZXsadOkr9-SdVL-11" value="是否到提醒时间" style="strokeWidth=2;html=1;shape=mxgraph.flowchart.decision;whiteSpace=wrap;" vertex="1" parent="1">
          <mxGeometry x="190" y="-900" width="100" height="100" as="geometry" />
        </mxCell>
        <mxCell id="jo4N5lZXsadOkr9-SdVL-12" style="edgeStyle=orthogonalEdgeStyle;rounded=0;orthogonalLoop=1;jettySize=auto;html=1;entryX=0;entryY=0.5;entryDx=0;entryDy=0;" edge="1" parent="1" source="jo4N5lZXsadOkr9-SdVL-16" target="jo4N5lZXsadOkr9-SdVL-4">
          <mxGeometry relative="1" as="geometry">
            <Array as="points">
              <mxPoint x="160" y="-480" />
              <mxPoint x="160" y="-970" />
            </Array>
          </mxGeometry>
        </mxCell>
        <mxCell id="jo4N5lZXsadOkr9-SdVL-13" value="记录" style="edgeLabel;html=1;align=center;verticalAlign=middle;resizable=0;points=[];" vertex="1" connectable="0" parent="jo4N5lZXsadOkr9-SdVL-12">
          <mxGeometry x="0.1143" y="1" relative="1" as="geometry">
            <mxPoint as="offset" />
          </mxGeometry>
        </mxCell>
        <mxCell id="jo4N5lZXsadOkr9-SdVL-14" value="" style="edgeStyle=orthogonalEdgeStyle;rounded=0;orthogonalLoop=1;jettySize=auto;html=1;" edge="1" parent="1" source="jo4N5lZXsadOkr9-SdVL-16" target="jo4N5lZXsadOkr9-SdVL-18">
          <mxGeometry relative="1" as="geometry" />
        </mxCell>
        <mxCell id="jo4N5lZXsadOkr9-SdVL-15" value="否(3次)" style="edgeLabel;html=1;align=center;verticalAlign=middle;resizable=0;points=[];" vertex="1" connectable="0" parent="jo4N5lZXsadOkr9-SdVL-14">
          <mxGeometry x="-0.16" relative="1" as="geometry">
            <mxPoint as="offset" />
          </mxGeometry>
        </mxCell>
        <mxCell id="jo4N5lZXsadOkr9-SdVL-16" value="是否接通" style="strokeWidth=2;html=1;shape=mxgraph.flowchart.decision;whiteSpace=wrap;" vertex="1" parent="1">
          <mxGeometry x="190" y="-530" width="100" height="100" as="geometry" />
        </mxCell>
        <mxCell id="jo4N5lZXsadOkr9-SdVL-17" value="" style="edgeStyle=orthogonalEdgeStyle;rounded=0;orthogonalLoop=1;jettySize=auto;html=1;" edge="1" parent="1" source="jo4N5lZXsadOkr9-SdVL-18" target="jo4N5lZXsadOkr9-SdVL-23">
          <mxGeometry relative="1" as="geometry" />
        </mxCell>
        <mxCell id="jo4N5lZXsadOkr9-SdVL-18" value="拨打队长电话" style="rounded=1;whiteSpace=wrap;html=1;" vertex="1" parent="1">
          <mxGeometry x="180" y="-380" width="120" height="60" as="geometry" />
        </mxCell>
        <mxCell id="jo4N5lZXsadOkr9-SdVL-19" value="" style="edgeStyle=orthogonalEdgeStyle;rounded=0;orthogonalLoop=1;jettySize=auto;html=1;" edge="1" parent="1" source="jo4N5lZXsadOkr9-SdVL-23" target="jo4N5lZXsadOkr9-SdVL-25">
          <mxGeometry relative="1" as="geometry" />
        </mxCell>
        <mxCell id="jo4N5lZXsadOkr9-SdVL-20" value="否(3次)" style="edgeLabel;html=1;align=center;verticalAlign=middle;resizable=0;points=[];" vertex="1" connectable="0" parent="jo4N5lZXsadOkr9-SdVL-19">
          <mxGeometry x="-0.45" y="1" relative="1" as="geometry">
            <mxPoint as="offset" />
          </mxGeometry>
        </mxCell>
        <mxCell id="jo4N5lZXsadOkr9-SdVL-21" style="edgeStyle=orthogonalEdgeStyle;rounded=0;orthogonalLoop=1;jettySize=auto;html=1;entryX=1;entryY=0.5;entryDx=0;entryDy=0;entryPerimeter=0;" edge="1" parent="1" source="jo4N5lZXsadOkr9-SdVL-23" target="jo4N5lZXsadOkr9-SdVL-31">
          <mxGeometry relative="1" as="geometry">
            <mxPoint x="370" y="50" as="targetPoint" />
            <Array as="points">
              <mxPoint x="370" y="-230" />
              <mxPoint x="370" y="170" />
            </Array>
          </mxGeometry>
        </mxCell>
        <mxCell id="jo4N5lZXsadOkr9-SdVL-22" value="是" style="edgeLabel;html=1;align=center;verticalAlign=middle;resizable=0;points=[];" vertex="1" connectable="0" parent="jo4N5lZXsadOkr9-SdVL-21">
          <mxGeometry x="-0.844" y="-1" relative="1" as="geometry">
            <mxPoint as="offset" />
          </mxGeometry>
        </mxCell>
        <mxCell id="jo4N5lZXsadOkr9-SdVL-23" value="是否接通" style="strokeWidth=2;html=1;shape=mxgraph.flowchart.decision;whiteSpace=wrap;" vertex="1" parent="1">
          <mxGeometry x="190" y="-280" width="100" height="100" as="geometry" />
        </mxCell>
        <mxCell id="jo4N5lZXsadOkr9-SdVL-24" value="" style="edgeStyle=orthogonalEdgeStyle;rounded=0;orthogonalLoop=1;jettySize=auto;html=1;" edge="1" parent="1" source="jo4N5lZXsadOkr9-SdVL-25" target="jo4N5lZXsadOkr9-SdVL-30">
          <mxGeometry relative="1" as="geometry" />
        </mxCell>
        <mxCell id="jo4N5lZXsadOkr9-SdVL-25" value="拨打应急人员电话" style="rounded=1;whiteSpace=wrap;html=1;" vertex="1" parent="1">
          <mxGeometry x="180" y="-110" width="120" height="60" as="geometry" />
        </mxCell>
        <mxCell id="jo4N5lZXsadOkr9-SdVL-26" style="edgeStyle=orthogonalEdgeStyle;rounded=0;orthogonalLoop=1;jettySize=auto;html=1;entryX=0;entryY=0.5;entryDx=0;entryDy=0;exitX=0;exitY=0.5;exitDx=0;exitDy=0;exitPerimeter=0;" edge="1" parent="1" source="jo4N5lZXsadOkr9-SdVL-30" target="jo4N5lZXsadOkr9-SdVL-25">
          <mxGeometry relative="1" as="geometry">
            <mxPoint x="180" y="40" as="sourcePoint" />
          </mxGeometry>
        </mxCell>
        <mxCell id="jo4N5lZXsadOkr9-SdVL-27" value="否(3次)" style="edgeLabel;html=1;align=center;verticalAlign=middle;resizable=0;points=[];" vertex="1" connectable="0" parent="jo4N5lZXsadOkr9-SdVL-26">
          <mxGeometry x="-0.0118" y="2" relative="1" as="geometry">
            <mxPoint as="offset" />
          </mxGeometry>
        </mxCell>
        <mxCell id="jo4N5lZXsadOkr9-SdVL-28" value="" style="edgeStyle=orthogonalEdgeStyle;rounded=0;orthogonalLoop=1;jettySize=auto;html=1;" edge="1" parent="1" source="jo4N5lZXsadOkr9-SdVL-30" target="jo4N5lZXsadOkr9-SdVL-31">
          <mxGeometry relative="1" as="geometry" />
        </mxCell>
        <mxCell id="jo4N5lZXsadOkr9-SdVL-29" value="是" style="edgeLabel;html=1;align=center;verticalAlign=middle;resizable=0;points=[];" vertex="1" connectable="0" parent="jo4N5lZXsadOkr9-SdVL-28">
          <mxGeometry x="0.12" y="-1" relative="1" as="geometry">
            <mxPoint as="offset" />
          </mxGeometry>
        </mxCell>
        <mxCell id="jo4N5lZXsadOkr9-SdVL-30" value="是否接通" style="strokeWidth=2;html=1;shape=mxgraph.flowchart.decision;whiteSpace=wrap;" vertex="1" parent="1">
          <mxGeometry x="190" y="-10" width="100" height="100" as="geometry" />
        </mxCell>
        <mxCell id="jo4N5lZXsadOkr9-SdVL-31" value="结束" style="strokeWidth=2;html=1;shape=mxgraph.flowchart.terminator;whiteSpace=wrap;" vertex="1" parent="1">
          <mxGeometry x="190" y="140" width="100" height="60" as="geometry" />
        </mxCell>
        <mxCell id="jo4N5lZXsadOkr9-SdVL-32" style="edgeStyle=orthogonalEdgeStyle;rounded=0;orthogonalLoop=1;jettySize=auto;html=1;entryX=1;entryY=0.5;entryDx=0;entryDy=0;entryPerimeter=0;" edge="1" parent="1" source="jo4N5lZXsadOkr9-SdVL-16" target="jo4N5lZXsadOkr9-SdVL-31">
          <mxGeometry relative="1" as="geometry">
            <Array as="points">
              <mxPoint x="370" y="-480" />
              <mxPoint x="370" y="170" />
            </Array>
          </mxGeometry>
        </mxCell>
        <mxCell id="jo4N5lZXsadOkr9-SdVL-33" value="是" style="edgeLabel;html=1;align=center;verticalAlign=middle;resizable=0;points=[];" vertex="1" connectable="0" parent="jo4N5lZXsadOkr9-SdVL-32">
          <mxGeometry x="-0.9121" y="-1" relative="1" as="geometry">
            <mxPoint as="offset" />
          </mxGeometry>
        </mxCell>
        <mxCell id="jo4N5lZXsadOkr9-SdVL-34" style="edgeStyle=orthogonalEdgeStyle;rounded=0;orthogonalLoop=1;jettySize=auto;html=1;entryX=1;entryY=0.5;entryDx=0;entryDy=0;" edge="1" parent="1" source="jo4N5lZXsadOkr9-SdVL-35" target="jo4N5lZXsadOkr9-SdVL-4">
          <mxGeometry relative="1" as="geometry" />
        </mxCell>
        <mxCell id="jo4N5lZXsadOkr9-SdVL-35" value="&lt;span style=&quot;&quot;&gt;&lt;span style=&quot;&quot;&gt;&amp;nbsp;&amp;nbsp;&amp;nbsp;&amp;nbsp;&lt;/span&gt;&lt;/span&gt;3天近期排班计划&lt;br&gt;" style="strokeWidth=2;html=1;shape=mxgraph.flowchart.document2;whiteSpace=wrap;size=0.25;verticalAlign=top;align=left;" vertex="1" parent="1">
          <mxGeometry x="450" y="-950" width="160" height="70" as="geometry" />
        </mxCell>
        <mxCell id="jo4N5lZXsadOkr9-SdVL-36" value="" style="edgeStyle=orthogonalEdgeStyle;rounded=0;orthogonalLoop=1;jettySize=auto;html=1;" edge="1" parent="1" source="jo4N5lZXsadOkr9-SdVL-40" target="jo4N5lZXsadOkr9-SdVL-8">
          <mxGeometry relative="1" as="geometry" />
        </mxCell>
        <mxCell id="jo4N5lZXsadOkr9-SdVL-37" value="否" style="edgeLabel;html=1;align=center;verticalAlign=middle;resizable=0;points=[];" vertex="1" connectable="0" parent="jo4N5lZXsadOkr9-SdVL-36">
          <mxGeometry x="-0.15" y="-3" relative="1" as="geometry">
            <mxPoint as="offset" />
          </mxGeometry>
        </mxCell>
        <mxCell id="jo4N5lZXsadOkr9-SdVL-38" style="rounded=0;orthogonalLoop=1;jettySize=auto;html=1;edgeStyle=orthogonalEdgeStyle;" edge="1" parent="1" source="jo4N5lZXsadOkr9-SdVL-40">
          <mxGeometry relative="1" as="geometry">
            <mxPoint x="370" y="-480" as="targetPoint" />
          </mxGeometry>
        </mxCell>
        <mxCell id="jo4N5lZXsadOkr9-SdVL-39" value="是" style="edgeLabel;html=1;align=center;verticalAlign=middle;resizable=0;points=[];" vertex="1" connectable="0" parent="jo4N5lZXsadOkr9-SdVL-38">
          <mxGeometry x="-0.8003" y="1" relative="1" as="geometry">
            <mxPoint as="offset" />
          </mxGeometry>
        </mxCell>
        <mxCell id="jo4N5lZXsadOkr9-SdVL-40" value="是否签到" style="strokeWidth=2;html=1;shape=mxgraph.flowchart.decision;whiteSpace=wrap;" vertex="1" parent="1">
          <mxGeometry x="190" y="-770" width="100" height="100" as="geometry" />
        </mxCell>
        <mxCell id="jo4N5lZXsadOkr9-SdVL-41" style="edgeStyle=orthogonalEdgeStyle;rounded=0;orthogonalLoop=1;jettySize=auto;html=1;exitX=0.5;exitY=1;exitDx=0;exitDy=0;exitPerimeter=0;entryX=0.5;entryY=0;entryDx=0;entryDy=0;entryPerimeter=0;" edge="1" parent="1" source="jo4N5lZXsadOkr9-SdVL-11" target="jo4N5lZXsadOkr9-SdVL-40">
          <mxGeometry relative="1" as="geometry" />
        </mxCell>
        <mxCell id="jo4N5lZXsadOkr9-SdVL-42" value="是" style="edgeLabel;html=1;align=center;verticalAlign=middle;resizable=0;points=[];" vertex="1" connectable="0" parent="jo4N5lZXsadOkr9-SdVL-41">
          <mxGeometry x="-0.25" y="-1" relative="1" as="geometry">
            <mxPoint as="offset" />
          </mxGeometry>
        </mxCell>
        <mxCell id="jo4N5lZXsadOkr9-SdVL-43" value="开始" style="shape=hexagon;perimeter=hexagonPerimeter2;whiteSpace=wrap;html=1;fixedSize=1;" vertex="1" parent="1">
          <mxGeometry x="190" y="-1110" width="100" height="60" as="geometry" />
        </mxCell>
      </root>
    </mxGraphModel>
  </diagram>
</mxfile>
